<svg xmlns="http://www.w3.org/2000/svg" width="640" height="360" viewBox="0 0 640 360" font-family="Segoe UI, Arial, sans-serif">
<rect width="640" height="360" fill="#ffffff"/>
<text x="58" y="24" font-size="15" font-weight="bold" fill="#222">耗时（秒）</text>
<text x="58" y="40" font-size="11" fill="#666">control 中位 21.6 vs omo 中位 35.3</text>
<line x1="58" y1="235" x2="628" y2="235" stroke="#e5e5e5" stroke-width="1"/><text x="52" y="239" text-anchor="end" font-size="11" fill="#888">11.6</text><line x1="58" y1="170" x2="628" y2="170" stroke="#e5e5e5" stroke-width="1"/><text x="52" y="174" text-anchor="end" font-size="11" fill="#888">23.2</text><line x1="58" y1="105" x2="628" y2="105" stroke="#e5e5e5" stroke-width="1"/><text x="52" y="109" text-anchor="end" font-size="11" fill="#888">34.8</text><line x1="58" y1="40.0" x2="628" y2="40.0" stroke="#e5e5e5" stroke-width="1"/><text x="52" y="44.0" text-anchor="end" font-size="11" fill="#888">46.3</text>
<rect x="107" y="160" width="44.0" height="140" fill="#8b8b8b" rx="2"><title>control run1: 24.9</title></rect><text x="129" y="155" text-anchor="middle" font-size="11" fill="#555">24.9</text><rect x="153" y="73.9" width="44.0" height="226" fill="#d97706" rx="2"><title>omo run1: 40.3</title></rect><text x="175" y="68.9" text-anchor="middle" font-size="11" fill="#555">40.3</text><text x="153" y="318" text-anchor="middle" font-size="12" fill="#333">run1</text><rect x="297" y="190" width="44.0" height="110" fill="#8b8b8b" rx="2"><title>control run2: 19.6</title></rect><text x="319" y="185" text-anchor="middle" font-size="11" fill="#555">19.6</text><rect x="343" y="102" width="44.0" height="198" fill="#d97706" rx="2"><title>omo run2: 35.3</title></rect><text x="365" y="97.0" text-anchor="middle" font-size="11" fill="#555">35.3</text><text x="343" y="318" text-anchor="middle" font-size="12" fill="#333">run2</text><rect x="487" y="179" width="44.0" height="121" fill="#8b8b8b" rx="2"><title>control run3: 21.6</title></rect><text x="509" y="174" text-anchor="middle" font-size="11" fill="#555">21.6</text><rect x="533" y="106" width="44.0" height="194" fill="#d97706" rx="2"><title>omo run3: 34.6</title></rect><text x="555" y="101" text-anchor="middle" font-size="11" fill="#555">34.6</text><text x="533" y="318" text-anchor="middle" font-size="12" fill="#333">run3</text>
<rect x="58" y="326" width="14" height="14" fill="#8b8b8b"/><text x="78" y="337" font-size="12" fill="#333">Control（无 omo）</text>
<rect x="208" y="326" width="14" height="14" fill="#d97706"/><text x="228" y="337" font-size="12" fill="#333">omo（ultrawork）</text>
<text x="628" y="352" text-anchor="end" font-size="10" fill="#999">3 次运行/组 · deepseek-v4-flash · omo-deepseek-harness benchmark</text>
</svg>