<svg xmlns="http://www.w3.org/2000/svg" width="640" height="360" viewBox="0 0 640 360" font-family="Segoe UI, Arial, sans-serif">
<rect width="640" height="360" fill="#ffffff"/>
<text x="64" y="24" font-size="15" font-weight="bold" fill="#222">ステップ数</text>
<text x="64" y="40" font-size="11" fill="#666">control 中央値 17.0 vs omo 中央値 9.00</text>
<line x1="64" y1="235" x2="628" y2="235" stroke="#e5e5e5" stroke-width="1"/><text x="58" y="239" text-anchor="end" font-size="11" fill="#888">6.32</text><line x1="64" y1="170" x2="628" y2="170" stroke="#e5e5e5" stroke-width="1"/><text x="58" y="174" text-anchor="end" font-size="11" fill="#888">12.6</text><line x1="64" y1="105" x2="628" y2="105" stroke="#e5e5e5" stroke-width="1"/><text x="58" y="109" text-anchor="end" font-size="11" fill="#888">19.0</text><line x1="64" y1="40.0" x2="628" y2="40.0" stroke="#e5e5e5" stroke-width="1"/><text x="58" y="44.0" text-anchor="end" font-size="11" fill="#888">25.3</text>
<rect x="112" y="177" width="44.0" height="123" fill="#8b8b8b" rx="2"><title>control run1: 12.0</title></rect><text x="134" y="172" text-anchor="middle" font-size="11" fill="#555">12.0</text><rect x="158" y="208" width="44.0" height="92.5" fill="#d97706" rx="2"><title>omo run1: 9.00</title></rect><text x="180" y="203" text-anchor="middle" font-size="11" fill="#555">9.00</text><text x="158" y="318" text-anchor="middle" font-size="12" fill="#333">run1</text><rect x="300" y="125" width="44.0" height="175" fill="#8b8b8b" rx="2"><title>control run2: 17.0</title></rect><text x="322" y="120" text-anchor="middle" font-size="11" fill="#555">17.0</text><rect x="346" y="156" width="44.0" height="144" fill="#d97706" rx="2"><title>omo run2: 14.0</title></rect><text x="368" y="151" text-anchor="middle" font-size="11" fill="#555">14.0</text><text x="346" y="318" text-anchor="middle" font-size="12" fill="#333">run2</text><rect x="488" y="73.9" width="44.0" height="226" fill="#8b8b8b" rx="2"><title>control run3: 22.0</title></rect><text x="510" y="68.9" text-anchor="middle" font-size="11" fill="#555">22.0</text><rect x="534" y="228" width="44.0" height="71.9" fill="#d97706" rx="2"><title>omo run3: 7.00</title></rect><text x="556" y="223" text-anchor="middle" font-size="11" fill="#555">7.00</text><text x="534" y="318" text-anchor="middle" font-size="12" fill="#333">run3</text>
<rect x="64" y="326" width="14" height="14" fill="#8b8b8b"/><text x="84" y="337" font-size="12" fill="#333">Control（omo なし）</text>
<rect x="214" y="326" width="14" height="14" fill="#d97706"/><text x="234" y="337" font-size="12" fill="#333">omo（ultrawork）</text>
<text x="628" y="352" text-anchor="end" font-size="10" fill="#999">3 回/グループ - deepseek-v4-flash - MiniMarkdown 施工ベンチマーク v2</text>
</svg>