<svg xmlns="http://www.w3.org/2000/svg" width="640" height="360" viewBox="0 0 640 360" font-family="Segoe UI, Arial, sans-serif">
<rect width="640" height="360" fill="#ffffff"/>
<text x="64" y="24" font-size="15" font-weight="bold" fill="#222">Implementation LOC</text>
<text x="64" y="40" font-size="11" fill="#666">control median 237 vs omo median 284</text>
<line x1="64" y1="235" x2="628" y2="235" stroke="#e5e5e5" stroke-width="1"/><text x="58" y="239" text-anchor="end" font-size="11" fill="#888">88.3</text><line x1="64" y1="170" x2="628" y2="170" stroke="#e5e5e5" stroke-width="1"/><text x="58" y="174" text-anchor="end" font-size="11" fill="#888">177</text><line x1="64" y1="105" x2="628" y2="105" stroke="#e5e5e5" stroke-width="1"/><text x="58" y="109" text-anchor="end" font-size="11" fill="#888">265</text><line x1="64" y1="40.0" x2="628" y2="40.0" stroke="#e5e5e5" stroke-width="1"/><text x="58" y="44.0" text-anchor="end" font-size="11" fill="#888">353</text>
<rect x="112" y="125" width="44.0" height="175" fill="#8b8b8b" rx="2"><title>control run1: 237</title></rect><text x="134" y="120" text-anchor="middle" font-size="11" fill="#555">237</text><rect x="158" y="73.9" width="44.0" height="226" fill="#d97706" rx="2"><title>omo run1: 307</title></rect><text x="180" y="68.9" text-anchor="middle" font-size="11" fill="#555">307</text><text x="158" y="318" text-anchor="middle" font-size="12" fill="#333">run1</text><rect x="300" y="121" width="44.0" height="179" fill="#8b8b8b" rx="2"><title>control run2: 243</title></rect><text x="322" y="116" text-anchor="middle" font-size="11" fill="#555">243</text><rect x="346" y="90.9" width="44.0" height="209" fill="#d97706" rx="2"><title>omo run2: 284</title></rect><text x="368" y="85.9" text-anchor="middle" font-size="11" fill="#555">284</text><text x="346" y="318" text-anchor="middle" font-size="12" fill="#333">run2</text><rect x="488" y="135" width="44.0" height="165" fill="#8b8b8b" rx="2"><title>control run3: 224</title></rect><text x="510" y="130" text-anchor="middle" font-size="11" fill="#555">224</text><rect x="534" y="134" width="44.0" height="166" fill="#d97706" rx="2"><title>omo run3: 225</title></rect><text x="556" y="129" text-anchor="middle" font-size="11" fill="#555">225</text><text x="534" y="318" text-anchor="middle" font-size="12" fill="#333">run3</text>
<rect x="64" y="326" width="14" height="14" fill="#8b8b8b"/><text x="84" y="337" font-size="12" fill="#333">Control (no omo)</text>
<rect x="214" y="326" width="14" height="14" fill="#d97706"/><text x="234" y="337" font-size="12" fill="#333">omo (ultrawork)</text>
<text x="628" y="352" text-anchor="end" font-size="10" fill="#999">3 runs/group - deepseek-v4-flash - MiniMarkdown build benchmark v2</text>
</svg>